<svg width="16" height="16" viewBox="0 0 16 16" fill="none" xmlns="http://www.w3.org/2000/svg">
<g clip-path="url(#clip0_1014_19820)">
<path d="M15.3333 12.6667V11.3333C15.3309 9.50488 14.6461 7.74317 13.4131 6.39308C12.18 5.04298 10.4874 4.20173 8.66667 4.034V3.14866C8.92086 3.00191 9.11952 2.77538 9.23184 2.50421C9.34416 2.23304 9.36387 1.93238 9.2879 1.64887C9.21194 1.36536 9.04454 1.11484 8.81168 0.936158C8.57882 0.757479 8.29351 0.660629 8 0.660629C7.70649 0.660629 7.42118 0.757479 7.18832 0.936158C6.95546 1.11484 6.78807 1.36536 6.7121 1.64887C6.63613 1.93238 6.65584 2.23304 6.76816 2.50421C6.88048 2.77538 7.07914 3.00191 7.33333 3.14866V4.034C5.51259 4.20173 3.82001 5.04298 2.58694 6.39308C1.35386 7.74317 0.669088 9.50488 0.666667 11.3333V12.6667C0.489856 12.6667 0.320286 12.7369 0.195262 12.8619C0.0702379 12.9869 0 13.1565 0 13.3333C0 13.5101 0.0702379 13.6797 0.195262 13.8047C0.320286 13.9298 0.489856 14 0.666667 14H15.3333C15.5101 14 15.6797 13.9298 15.8047 13.8047C15.9298 13.6797 16 13.5101 16 13.3333C16 13.1565 15.9298 12.9869 15.8047 12.8619C15.6797 12.7369 15.5101 12.6667 15.3333 12.6667ZM2 11.3333C2.31533 3.37733 13.6873 3.38333 14 11.3333V12.6667H2V11.3333Z" fill="#1E1E1E"/>
</g>
<defs>
<clipPath id="clip0_1014_19820">
<rect width="16" height="16" fill="white"/>
</clipPath>
</defs>
</svg>
