<svg width="13" height="13" viewBox="0 0 13 13" fill="none" xmlns="http://www.w3.org/2000/svg">
<g clip-path="url(#clip0_1226_3315)">
<path d="M5.98519 11.0772L4.36269 7.83173L1.11719 6.20923L4.36269 4.58673L5.98519 1.34123L7.60769 4.58673L10.8532 6.20923L7.60769 7.83173L5.98519 11.0772ZM3.35319 6.20923L5.10769 7.08673L5.98519 8.84123L6.86269 7.08673L8.61719 6.20923L6.86269 5.33173L5.98519 3.57723L5.10769 5.33173L3.35319 6.20923ZM9.98519 10.9592L10.7352 12.4592L11.4852 10.9592L12.9852 10.2092L11.4852 9.45923L10.7352 7.95923L9.98519 9.45923L8.48519 10.2092L9.98519 10.9592ZM10.6517 2.79273L11.2352 3.95923L11.8187 2.79273L12.9852 2.20923L11.8187 1.62573L11.2352 0.459229L10.6517 1.62573L9.48519 2.20923L10.6517 2.79273Z" fill="#1E1E1E"/>
</g>
<defs>
<clipPath id="clip0_1226_3315">
<rect width="12" height="12" fill="white" transform="translate(0.984375 0.459229)"/>
</clipPath>
</defs>
</svg>
