<svg width="20" height="20" viewBox="0 0 20 20" fill="none" xmlns="http://www.w3.org/2000/svg">
<path d="M11.9105 5.05899C12.6586 5.2047 13.3461 5.56998 13.8851 6.10806C14.4241 6.64614 14.79 7.33255 14.9359 8.07943M11.9105 2C13.4648 2.17237 14.9142 2.86723 16.0208 3.9705C17.1274 5.07377 17.8253 6.51988 18 8.07141M17.2344 14.1733V16.468C17.2353 16.6808 17.1916 16.8914 17.1061 17.0863C17.0206 17.2813 16.8953 17.4562 16.738 17.5998C16.5808 17.7435 16.3952 17.8527 16.1931 17.9205C15.9911 17.9883 15.7771 18.0132 15.5648 17.9934C13.2077 17.7378 10.9435 16.9337 8.95419 15.6458C7.10376 14.4729 5.53461 12.9077 4.3581 11.0613C3.06368 9.06655 2.25808 6.79543 2.00657 4.43193C1.98682 4.22005 2.0117 4.00639 2.0796 3.80468C2.14749 3.60297 2.25691 3.41767 2.40082 3.26069C2.54473 3.10372 2.71994 2.97853 2.9152 2.89319C3.11045 2.80785 3.32143 2.76423 3.53458 2.76515H5.8282C6.19946 2.76161 6.55931 2.89314 6.84051 3.13517C7.12171 3.37719 7.30503 3.71315 7.35621 4.08027C7.4546 4.8145 7.63589 5.53526 7.89664 6.22879C8.00021 6.50249 8.02275 6.80015 7.96157 7.08628C7.9004 7.37241 7.7581 7.63494 7.55164 7.84258L6.57854 8.81407C7.6692 10.7281 9.25706 12.3128 11.1746 13.4009L12.1477 12.4295C12.3557 12.2233 12.6187 12.0813 12.9053 12.0202C13.1919 11.9591 13.49 11.9816 13.7642 12.085C14.459 12.344 15.181 12.5236 15.9163 12.6205C16.2889 12.6722 16.6294 12.8593 16.8724 13.1459C17.1155 13.4326 17.2441 13.7987 17.2336 14.1741L17.2344 14.1733Z" stroke="#1E1E1E" stroke-width="1.35271" stroke-linecap="round" stroke-linejoin="round"/>
</svg>
