<svg width="10" height="10" viewBox="0 0 10 10" fill="none" xmlns="http://www.w3.org/2000/svg">
<path fill-rule="evenodd" clip-rule="evenodd" d="M4.998 0C4.94395 0.00203926 4.89242 0.0233692 4.85274 0.0601293C4.81305 0.0968893 4.78783 0.146649 4.78165 0.200401C4.65469 1.37237 4.13121 2.46575 3.29799 3.29931C2.46476 4.13287 1.37182 4.65655 0.20032 4.78357C0.152562 4.78794 0.107426 4.80738 0.0714234 4.83907C0.0354203 4.87077 0.0104104 4.91309 0 4.95992V4.97996C0 4.97996 0 4.97996 0 4.99399C0 5.00802 0 4.99399 0 5.00601C0 5.00601 0 5.01803 0 5.00601C0 5.00601 0 5.01804 0 5.02204C0.00596643 5.07313 0.0289894 5.12071 0.0653435 5.15707C0.101698 5.19344 0.149255 5.21647 0.20032 5.22244C1.36911 5.35134 2.45901 5.87511 3.29011 6.70727C4.12121 7.53943 4.64381 8.63023 4.77163 9.7996C4.7776 9.85068 4.80062 9.89826 4.83698 9.93463C4.87333 9.971 4.92089 9.99403 4.97195 10H5.002C5.05592 9.99756 5.10723 9.97609 5.14684 9.93941C5.18644 9.90272 5.21178 9.85319 5.21835 9.7996C5.35036 8.63173 5.87603 7.54366 6.70877 6.7146C7.5415 5.88553 8.63166 5.36491 9.79968 5.23848C9.84733 5.2338 9.89232 5.21426 9.92826 5.18261C9.96421 5.15097 9.98931 5.10882 10 5.06212V5.04208C10 5.04208 10 5.04208 10 5.02805C10 5.01403 10 5.02806 10 5.01603C10 5.00401 10 5.01603 10 5.01603C10 5.01603 10 5.00601 10 5V4.97795C9.98822 4.93237 9.96266 4.89154 9.9268 4.86105C9.89094 4.83056 9.84654 4.8119 9.79968 4.80761C8.62701 4.67778 7.534 4.15062 6.70211 3.31366C5.87021 2.47669 5.34948 1.38027 5.22636 0.206412C5.2204 0.155327 5.19737 0.10775 5.16102 0.0713813C5.12466 0.0350126 5.07711 0.0119804 5.02604 0.00601159H4.998V0Z" fill="#DDDDDD"/>
</svg>
