<svg width="18" height="18" viewBox="0 0 18 18" fill="none" xmlns="http://www.w3.org/2000/svg">
<path d="M3.14706 3.93441C3.08826 3.97034 3.01313 4.04548 2.9772 4.10427C2.91513 4.2088 2.91187 4.27414 2.91187 5.86823V7.52765H3.69258H4.47002L4.48962 7.17486C4.49942 6.98213 4.52556 6.7698 4.54515 6.70447C4.63009 6.40721 4.93061 6.11322 5.24094 6.01849C5.43366 5.95969 7.18455 5.95969 7.37728 6.01849C7.6778 6.10995 7.9914 6.41701 8.07306 6.70447C8.09266 6.7698 8.11879 6.98213 8.12859 7.17486L8.14819 7.52765H8.66104H9.1739L9.1935 7.17486C9.2033 6.98213 9.22943 6.7698 9.24903 6.70447C9.33396 6.40721 9.63449 6.11322 9.94481 6.01849C10.1375 5.95969 11.8884 5.95969 12.0812 6.01849C12.3817 6.10995 12.6953 6.41701 12.7769 6.70447C12.7965 6.7698 12.8227 6.98213 12.8325 7.17486L12.8521 7.52765H13.6295H14.4102V5.86823C14.4102 4.27414 14.407 4.2088 14.3449 4.10427C14.309 4.04548 14.2338 3.97034 14.175 3.93441C14.0672 3.86908 13.9986 3.86908 8.66104 3.86908C3.32345 3.86908 3.25486 3.86908 3.14706 3.93441Z" fill="#1E1E1E"/>
<path d="M2.4147 8.63503C1.94105 8.78856 1.53599 9.20341 1.39553 9.68033C1.34979 9.83386 1.34326 10.1344 1.34326 11.9179C1.34326 13.9171 1.34653 13.9824 1.40859 14.0869C1.50659 14.2437 1.65359 14.3221 1.86591 14.3221C2.07824 14.3221 2.22524 14.2437 2.32324 14.0869C2.37877 13.9955 2.38857 13.9204 2.38857 13.6264V13.2768H8.6604H14.9322V13.6264C14.9322 13.9204 14.942 13.9955 14.9976 14.0869C15.0956 14.2437 15.2426 14.3221 15.4549 14.3221C15.6672 14.3221 15.8142 14.2437 15.9122 14.0869C15.9743 13.9824 15.9775 13.9171 15.9775 11.9179C15.9775 10.1344 15.971 9.83386 15.9253 9.68033C15.7848 9.19688 15.3765 8.78529 14.8963 8.63503C14.7036 8.57623 14.4978 8.57296 8.6506 8.57623C2.87529 8.57623 2.59109 8.5795 2.4147 8.63503Z" fill="#1E1E1E"/>
</svg>
