<svg width="14" height="14" viewBox="0 0 14 14" fill="none" xmlns="http://www.w3.org/2000/svg">
<g clip-path="url(#clip0_1064_13108)">
<path d="M13.6697 5.14768L9.13502 4.7271L7.33372 0.544366C7.20761 0.251487 6.79235 0.251487 6.66624 0.544366L4.86497 4.72713L0.33032 5.14768C0.0128046 5.17713 -0.115519 5.57205 0.124039 5.78249L3.54545 8.78816L2.54417 13.2309C2.47407 13.5419 2.81001 13.786 3.08419 13.6232L6.99999 11.298L10.9158 13.6232C11.19 13.786 11.526 13.5419 11.4558 13.2309L10.4545 8.78816L13.8759 5.78249C14.1155 5.57205 13.9872 5.17713 13.6697 5.14768Z" fill="#FFDC64"/>
<path d="M7.33372 0.544366C7.20761 0.251487 6.79235 0.251487 6.66624 0.544366L4.86497 4.72713L0.33032 5.14768C0.0128046 5.17713 -0.115519 5.57205 0.124039 5.78249L3.54545 8.78816L2.54417 13.2309C2.47407 13.5419 2.81001 13.786 3.08419 13.6232L3.95817 13.1042C4.07914 8.12491 6.39269 4.61844 8.22439 2.61253L7.33372 0.544366Z" fill="#FFC850"/>
</g>
<defs>
<clipPath id="clip0_1064_13108">
<rect width="14" height="14" fill="white"/>
</clipPath>
</defs>
</svg>
